<svg xmlns="http://www.w3.org/2000/svg" viewBox="0 0 357 117"><defs><style>.cls-1{fill:#fff;stroke:#231f20;stroke-miterlimit:10;}.cls-2{fill:#231f20;}</style></defs><g id="Layer_2" data-name="Layer 2"><g id="Layer_1-2" data-name="Layer 1"><rect class="cls-1" x="0.5" y="0.5" width="356" height="116"/><path class="cls-2" d="M75.466,25.919h7.74V79.383h25.62v6.494H75.466Z"/><path class="cls-2" d="M165.226,55.276c0,20.638-12.543,31.58-27.844,31.58-15.835,0-26.955-12.276-26.955-30.424,0-19.037,11.832-31.491,27.844-31.491C154.64,24.941,165.226,37.484,165.226,55.276Zm-46.526.978c0,12.81,6.939,24.286,19.126,24.286,12.277,0,19.216-11.3,19.216-24.909,0-11.92-6.228-24.374-19.126-24.374C125.105,31.257,118.7,43.088,118.7,56.254Z"/><path class="cls-2" d="M220.914,83.208A55.837,55.837,0,0,1,202.5,86.5c-9.074,0-16.547-2.313-22.418-7.917C174.923,73.6,171.72,65.6,171.72,56.254c.089-17.88,12.365-30.958,32.47-30.958,6.939,0,12.366,1.513,14.945,2.758l-1.868,6.316a31.085,31.085,0,0,0-13.255-2.579c-14.589,0-24.108,9.073-24.108,24.107,0,15.212,9.163,24.2,23.129,24.2,5.071,0,8.54-.712,10.32-1.6V60.613H201.165V54.386h19.749Z"/><path class="cls-2" d="M283.986,55.276c0,20.638-12.543,31.58-27.843,31.58-15.835,0-26.955-12.276-26.955-30.424,0-19.037,11.832-31.491,27.844-31.491C273.4,24.941,283.986,37.484,283.986,55.276Zm-46.525.978c0,12.81,6.938,24.286,19.126,24.286,12.276,0,19.216-11.3,19.216-24.909,0-11.92-6.228-24.374-19.127-24.374C243.866,31.257,237.461,43.088,237.461,56.254Z"/></g></g></svg>